<?xml version="1.0" standalone="no"?>
<!DOCTYPE svg PUBLIC "-//W3C//DTD SVG 20010904//EN"
 "http://www.w3.org/TR/2001/REC-SVG-20010904/DTD/svg10.dtd">
<svg version="1.0" xmlns="http://www.w3.org/2000/svg"
 width="1654.000000pt" height="1654.000000pt" viewBox="0 0 1654.000000 1654.000000"
 preserveAspectRatio="xMidYMid meet">
<metadata>
Created by potrace 1.11, written by Peter Selinger 2001-2013
</metadata>
<g transform="translate(0.000000,1654.000000) scale(0.100000,-0.100000)"
fill="#000000" stroke="none">
<path d="M8037 14114 c-1 -1 -54 -5 -117 -9 -63 -3 -133 -8 -155 -10 -22 -2
-69 -7 -105 -10 -62 -6 -88 -9 -170 -20 -19 -3 -53 -8 -75 -10 -22 -3 -51 -8
-65 -10 -14 -3 -43 -7 -65 -11 -22 -3 -47 -7 -55 -9 -8 -2 -31 -7 -50 -10 -54
-9 -338 -73 -400 -90 -30 -9 -65 -18 -78 -21 -13 -2 -42 -11 -65 -18 -23 -8
-82 -26 -132 -41 -93 -28 -396 -139 -475 -174 -25 -11 -48 -20 -53 -20 -4 0
-24 -9 -45 -20 -20 -10 -55 -27 -77 -36 -72 -32 -240 -116 -249 -126 -6 -5
-18 -9 -27 -9 -10 0 -19 -3 -21 -7 -1 -5 -37 -26 -78 -47 -294 -154 -698 -432
-985 -680 -137 -118 -179 -157 -350 -330 -163 -164 -236 -243 -321 -346 -16
-19 -35 -41 -42 -48 -7 -8 -25 -30 -40 -50 -15 -21 -30 -39 -33 -42 -7 -6
-177 -234 -202 -270 -214 -316 -320 -497 -461 -785 -141 -289 -282 -649 -353
-905 -50 -182 -103 -395 -117 -475 -3 -16 -8 -41 -11 -55 -5 -25 -8 -41 -25
-140 -15 -89 -19 -112 -25 -165 -3 -27 -8 -61 -10 -75 -3 -14 -7 -50 -10 -80
-3 -30 -8 -75 -11 -100 -26 -250 -26 -911 0 -1095 3 -16 8 -57 11 -90 12 -116
16 -150 20 -175 9 -52 27 -166 30 -195 13 -97 103 -484 141 -609 83 -269 183
-546 255 -704 16 -34 29 -65 29 -68 0 -4 42 -90 93 -193 99 -197 186 -353 274
-489 29 -45 53 -85 53 -87 0 -7 215 -313 257 -365 7 -8 45 -55 84 -105 241
-305 597 -661 899 -900 41 -33 77 -62 80 -65 33 -34 327 -238 505 -350 274
-172 701 -383 990 -489 108 -40 319 -111 390 -132 83 -24 242 -68 270 -74 11
-2 70 -15 130 -29 61 -14 148 -33 195 -41 47 -8 96 -17 110 -20 30 -6 50 -9
200 -29 397 -52 900 -65 1235 -32 17 2 66 7 109 10 43 4 86 9 95 11 9 1 45 6
81 10 36 4 72 9 80 10 8 2 37 6 65 9 295 40 734 152 1065 271 1816 655 3195
2176 3664 4042 25 96 52 218 62 273 2 14 11 59 19 100 8 41 17 93 20 115 3 23
7 50 9 60 8 42 22 152 31 244 3 35 8 78 10 95 27 213 27 822 0 1091 -6 54 -33
274 -40 315 -11 76 -18 117 -20 131 -3 14 -51 258 -60 301 -9 43 -88 336 -102
377 -8 25 -16 51 -17 56 -5 25 -99 297 -121 350 -7 17 -27 66 -45 110 -17 44
-42 104 -56 133 -13 29 -24 55 -24 58 0 3 -42 89 -93 192 -227 455 -495 857
-842 1257 -80 93 -432 445 -520 521 -56 49 -240 200 -325 268 -9 6 -38 27 -65
46 -28 19 -54 38 -60 42 -5 4 -23 18 -40 31 -79 61 -373 247 -525 331 -94 52
-384 197 -460 230 -36 16 -89 39 -119 53 -29 13 -61 26 -71 28 -10 2 -28 9
-40 15 -21 11 -182 70 -315 115 -182 62 -626 177 -730 190 -11 1 -33 5 -50 8
-16 4 -46 9 -65 12 -19 3 -46 7 -60 10 -14 2 -45 7 -70 10 -25 4 -56 8 -70 10
-44 6 -115 14 -270 30 -122 12 -277 18 -493 19 -131 1 -239 0 -240 0z"/>
</g>
</svg>
